<svg width="30" height="30" viewBox="0 0 30 30" fill="none" xmlns="http://www.w3.org/2000/svg">
<g clip-path="url(#clip0_49_23)">
<path d="M26.5 11.25C26.5 20 15.25 27.5 15.25 27.5C15.25 27.5 4 20 4 11.25C4 8.26631 5.18526 5.40483 7.29505 3.29505C9.40483 1.18526 12.2663 0 15.25 0C18.2337 0 21.0952 1.18526 23.205 3.29505C25.3147 5.40483 26.5 8.26631 26.5 11.25Z" stroke="black" stroke-width="2" stroke-linecap="round" stroke-linejoin="round"/>
<path d="M15 16.25C17.0711 16.25 18.75 14.5711 18.75 12.5C18.75 10.4289 17.0711 8.75 15 8.75C12.9289 8.75 11.25 10.4289 11.25 12.5C11.25 14.5711 12.9289 16.25 15 16.25Z" stroke="black" stroke-width="2" stroke-linecap="round" stroke-linejoin="round"/>
</g>
<defs>
<clipPath id="clip0_49_23">
<rect width="30" height="30" fill="white"/>
</clipPath>
</defs>
</svg>
